<?xml version="1.0" encoding="UTF-8"?>
<svg width="1614px" height="525px" viewBox="0 0 1614 525" version="1.1" xmlns="http://www.w3.org/2000/svg" xmlns:xlink="http://www.w3.org/1999/xlink">
    <title>Artboard Copy</title>
    <g id="Artboard-Copy" stroke="none" stroke-width="1" fill="none" fill-rule="evenodd">
        <rect fill="#FFFFFF" opacity="0" x="0" y="0" width="1614" height="525"></rect>
        <polygon id="Rectangle" fill="#0165B9" fill-rule="nonzero" points="62 73 1562 73 1464.96298 463.968761 62.9517648 465"></polygon>
        <polygon id="Rectangle" fill="#FFFFFF" points="214 166 345 165 338 200 207 202"></polygon>
        <g id="Group" transform="translate(488.896244, 163.000000)" fill="#FFFFFF">
            <polygon id="Rectangle-Copy-9" points="36.1037556 1 167.103756 0 160.103756 35 29.1037556 37"></polygon>
            <polygon id="Rectangle-Copy-11" transform="translate(74.604136, 169.456369) rotate(1.000000) translate(-74.604136, -169.456369) " points="14.8505131 151.956369 141.104136 150.956369 134.35776 185.956369 8.10413634 187.956369"></polygon>
            <polygon id="Rectangle-Copy-10" points="44.1037556 79 136.103756 79 130.103756 106 44.1037556 106"></polygon>
            <polygon id="Rectangle-Copy-8" transform="translate(34.242048, 116.849569) rotate(-91.000000) translate(-34.242048, -116.849569) " points="-35.354261 84.4917253 104.484096 112.207412 104.484096 149.207412 -36 121.48609"></polygon>
        </g>
        <g id="Group-Copy" transform="translate(645.896244, 162.000000)" fill="#FFFFFF">
            <polygon id="Rectangle-Copy-9" points="36.1037556 1 167.103756 0 160.103756 35 29.1037556 37"></polygon>
            <polygon id="Rectangle-Copy-11" transform="translate(74.604136, 169.456369) rotate(1.000000) translate(-74.604136, -169.456369) " points="14.8505131 151.956369 141.104136 150.956369 134.35776 185.956369 8.10413634 187.956369"></polygon>
            <polygon id="Rectangle-Copy-10" points="44.1037556 79 136.103756 79 130.103756 106 44.1037556 106"></polygon>
            <polygon id="Rectangle-Copy-8" transform="translate(34.242048, 116.849569) rotate(-91.000000) translate(-34.242048, -116.849569) " points="-35.354261 84.4917253 104.484096 112.207412 104.484096 149.207412 -36 121.48609"></polygon>
        </g>
        <g id="Group-2" transform="translate(330.896244, 163.000000)" fill="#FFFFFF">
            <path d="M36.1037556,1 L144.653928,0.171372728 C155.699301,0.0870569023 164.721697,8.97274954 164.806013,20.0181227 C164.811883,20.7871355 164.773394,21.5558467 164.690736,22.3204269 L163.103756,37 L163.103756,37 L29.1037556,37 L36.1037556,1 Z" id="Rectangle-Copy-5"></path>
            <rect id="Rectangle-Copy-4" x="44.1037556" y="79" width="92" height="27"></rect>
            <path d="M98.5173691,27.7757734 L195.327982,46.0765464 L195.327982,58.0197532 C195.327982,69.0654482 186.373677,78.0197532 175.327982,78.0197532 C174.185548,78.0197532 173.045215,77.921867 171.919494,77.7271684 L118.087419,68.4166646 C103.393877,65.8753493 93.5425513,51.9037374 96.0838666,37.2101958 C96.2268507,36.3834811 96.4082906,35.5638802 96.6275958,34.7540612 L98.5173691,27.7757734 L98.5173691,27.7757734 Z" id="Rectangle-Copy-6" transform="translate(142.103756, 54.775773) rotate(-90.000000) translate(-142.103756, -54.775773) "></path>
            <path d="M79.379529,113.275773 L170.827982,129.476592 L170.827982,148.039476 C170.827982,156.876032 163.664538,164.039476 154.827982,164.039476 C153.850354,164.039476 152.874782,163.949874 151.91351,163.771795 L79.379529,150.334597 L79.379529,150.334597 L79.379529,113.275773 Z" id="Rectangle-Copy-7" transform="translate(125.103756, 140.275773) rotate(-90.000000) translate(-125.103756, -140.275773) "></path>
            <polygon id="Rectangle-Copy-3" transform="translate(34.242048, 117.849569) rotate(-91.000000) translate(-34.242048, -117.849569) " points="-35.354261 85.4917253 104.484096 113.207412 104.484096 150.207412 -36 122.48609"></polygon>
        </g>
        <polygon id="Rectangle-Copy-2" fill="#FFFFFF" points="207 242 314 242 309.18018 269 207 268.129032"></polygon>
        <polygon id="Rectangle-Copy-19" fill="#FFFFFF" points="1025 233 1132 233 1127.18018 260 1025 259.129032"></polygon>
        <path d="M1281,233 L1388,233 L1386.76849,240.920793 C1384.70823,254.171906 1373.23448,263.902665 1359.82481,263.77143 L1281,263 L1281,263 L1281,233 Z" id="Rectangle-Copy-24" fill="#FFFFFF"></path>
        <polygon id="Rectangle-Copy-14" fill="#FFFFFF" points="847 232 962 232 956.81982 262 847 261.032258"></polygon>
        <polygon id="Rectangle-Copy" fill="#FFFFFF" transform="translate(212.138292, 281.849569) rotate(-91.000000) translate(-212.138292, -281.849569) " points="142.541983 249.491725 282.38034 277.207412 282.38034 314.207412 141.896244 286.48609"></polygon>
        <polygon id="Rectangle-Copy-21" fill="#FFFFFF" transform="translate(1262.138292, 280.849569) rotate(-91.000000) translate(-1262.138292, -280.849569) " points="1192.54198 248.491725 1332.38034 276.207412 1332.38034 313.207412 1191.89624 285.48609"></polygon>
        <polygon id="Rectangle-Copy-17" fill="#FFFFFF" transform="translate(1024.558920, 256.020319) rotate(-88.000000) translate(-1024.558920, -256.020319) " points="929.149603 217.885746 1117.28086 249.149343 1119.96824 294.154892 930.791481 263.738537"></polygon>
        <polygon id="Rectangle-Copy-18" fill="#FFFFFF" transform="translate(1126.558920, 256.020319) rotate(-88.000000) translate(-1126.558920, -256.020319) " points="1031.1496 217.885746 1219.28086 249.149343 1221.96824 294.154892 1032.79148 263.738537"></polygon>
        <polygon id="Rectangle-Copy-20" fill="#FFFFFF" transform="translate(1198.058920, 256.520319) rotate(-88.000000) translate(-1198.058920, -256.520319) " points="1102.30696 222.900454 1291.3678 252.130371 1293.81089 290.140184 1103.66964 260.758119"></polygon>
        <polygon id="Rectangle-Copy-12" fill="#FFFFFF" points="861 162 992 162 985 199 854 199"></polygon>
        <path d="M814.065217,315 L965,315 L961.909854,329.176355 C959.00564,342.499735 947.211435,352 933.5752,352 L806,352 L806,352 L814.065217,315 Z" id="Rectangle-Copy-16" fill="#FFFFFF"></path>
        <path d="M803.907154,180.921393 L900.717767,199.222166 L900.717767,221.855582 C900.717767,227.930714 895.792899,232.855582 889.717767,232.855582 C889.089428,232.855582 888.462245,232.801744 887.843099,232.69466 L823.477204,221.562284 C808.783662,219.020969 798.932336,205.049357 801.473652,190.355815 C801.616636,189.529101 801.798076,188.7095 802.017381,187.899681 L803.907154,180.921393 L803.907154,180.921393 Z" id="Rectangle-Copy-13" fill="#FFFFFF" transform="translate(847.493541, 207.921393) rotate(-269.000000) translate(-847.493541, -207.921393) "></path>
        <path d="M907.275773,250.275773 L998.724227,266.476592 L998.724227,291.050819 C998.724227,297.125951 993.799359,302.050819 987.724227,302.050819 C987.052107,302.050819 986.381402,301.989218 985.720527,301.866788 L907.275773,287.334597 L907.275773,287.334597 L907.275773,250.275773 Z" id="Rectangle-Copy-15" fill="#FFFFFF" transform="translate(953.000000, 277.275773) rotate(-90.000000) translate(-953.000000, -277.275773) "></path>
        <path d="M367,164 L475.550173,163.171373 C486.595546,163.087057 495.617941,171.97275 495.702257,183.018123 C495.708128,183.787135 495.669638,184.555847 495.586981,185.320427 L494,200 L494,200 L360,200 L367,164 Z" id="Rectangle-Copy-23" fill="#FFFFFF"></path>
        <path d="M429.413614,190.775773 L526.224226,209.076546 L526.224226,221.019753 C526.224226,232.065448 517.269921,241.019753 506.224226,241.019753 C505.081793,241.019753 503.94146,240.921867 502.815739,240.727168 L448.983663,231.416665 C434.290122,228.875349 424.438796,214.903737 426.980111,200.210196 C427.123095,199.383481 427.304535,198.56388 427.52384,197.754061 L429.413614,190.775773 L429.413614,190.775773 Z" id="Rectangle-Copy-22" fill="#FFFFFF" transform="translate(473.000000, 217.775773) rotate(-90.000000) translate(-473.000000, -217.775773) "></path>
        <path d="M1266,163 L1374.55017,162.171373 C1385.59555,162.087057 1394.61794,170.97275 1394.70226,182.018123 C1394.70813,182.787135 1394.66964,183.555847 1394.58698,184.320427 L1393,199 L1393,199 L1259,199 L1266,163 Z" id="Rectangle-Copy-23" fill="#FFFFFF"></path>
        <path d="M1330.41361,188.775773 L1427.22423,207.076546 L1427.22423,219.019753 C1427.22423,230.065448 1418.26992,239.019753 1407.22423,239.019753 C1406.08179,239.019753 1404.94146,238.921867 1403.81574,238.727168 L1349.98366,229.416665 C1335.29012,226.875349 1325.4388,212.903737 1327.98011,198.210196 C1328.1231,197.383481 1328.30454,196.56388 1328.52384,195.754061 L1330.41361,188.775773 L1330.41361,188.775773 Z" id="Rectangle-Copy-22" fill="#FFFFFF" transform="translate(1374.000000, 215.775773) rotate(-90.000000) translate(-1374.000000, -215.775773) "></path>
    </g>
</svg>